HIERARCHY
ROOT Hips
{
    OFFSET 0.0 0.0 0.0
    CHANNELS 6 Xposition Yposition Zposition Zrotation Xrotation Yrotation
    JOINT LHipJoint
    {
        OFFSET 0.1 0.0 0.0
        CHANNELS 3 Zrotation Xrotation Yrotation
        JOINT LeftHip
        {
            OFFSET 0.1180810034275055 0.0 0.0
            CHANNELS 3 Zrotation Xrotation Yrotation
            JOINT LeftKnee
            {
                OFFSET 0.0 0.0 -0.315794438123703
                CHANNELS 3 Zrotation Xrotation Yrotation
                JOINT LeftAnkle
                {
                    OFFSET 0.0 0.0 -0.5970773696899414
                    CHANNELS 3 Zrotation Xrotation Yrotation
                    End Site
                    {
                        OFFSET 0.0 -0.1 0.0
                    }
                }
            }
        }
    }
    JOINT lowerback
    {
        OFFSET 0.0 0.0 0.1
        CHANNELS 3 Zrotation Xrotation Yrotation
        JOINT Chest
        {
            OFFSET 0.0 0.0 0.334291934967041
            CHANNELS 3 Zrotation Xrotation Yrotation
            JOINT Chest2
            {
                OFFSET 0.0 0.0 0.27294889092445374
                CHANNELS 3 Zrotation Xrotation Yrotation
                JOINT LeftCollar
                {
                    OFFSET 0.1 0.0 0.0
                    CHANNELS 3 Zrotation Xrotation Yrotation
                    JOINT LeftShoulder
                    {
                        OFFSET 0.1647394895553589 0.0 0.0
                        CHANNELS 3 Zrotation Xrotation Yrotation
                        JOINT LeftElbow
                        {
                            OFFSET 0.39550989866256714 0.0 0.0
                            CHANNELS 3 Zrotation Xrotation Yrotation
                            JOINT LeftWrist
                            {
                                OFFSET 0.24585005640983582 0.0 0.0
                                CHANNELS 3 Zrotation Xrotation Yrotation
                                End Site
                                {
                                    OFFSET 0.1 0.0 0.0
                                }
                            }
                        }
                    }
                }
                JOINT Neck
                {
                    OFFSET 0.0 0.0 0.1
                    CHANNELS 3 Zrotation Xrotation Yrotation
                    JOINT Head
                    {
                        OFFSET 0.0 0.0 0.28387686610221863
                        CHANNELS 3 Zrotation Xrotation Yrotation
                        End Site
                        {
                            OFFSET 0.0 0.0 0.17968223989009857
                        }
                    }
                }
                JOINT RightCollar
                {
                    OFFSET -0.1 0.0 0.0
                    CHANNELS 3 Zrotation Xrotation Yrotation
                    JOINT RightShoulder
                    {
                        OFFSET -0.1647394895553589 0.0 0.0
                        CHANNELS 3 Zrotation Xrotation Yrotation
                        JOINT RightElbow
                        {
                            OFFSET -0.39550989866256714 0.0 0.0
                            CHANNELS 3 Zrotation Xrotation Yrotation
                            JOINT RightWrist
                            {
                                OFFSET -0.24585005640983582 0.0 0.0
                                CHANNELS 3 Zrotation Xrotation Yrotation
                                End Site
                                {
                                    OFFSET -0.1 0.0 0.0
                                }
                            }
                        }
                    }
                }
            }
        }
    }
    JOINT RHipJoint
    {
        OFFSET -0.1 0.0 0.0
        CHANNELS 3 Zrotation Xrotation Yrotation
        JOINT RightHip
        {
            OFFSET -0.1180810034275055 0.0 0.0
            CHANNELS 3 Zrotation Xrotation Yrotation
            JOINT RightKnee
            {
                OFFSET 0.0 0.0 -0.315794438123703
                CHANNELS 3 Zrotation Xrotation Yrotation
                JOINT RightAnkle
                {
                    OFFSET 0.0 0.0 -0.5970773696899414
                    CHANNELS 3 Zrotation Xrotation Yrotation
                    End Site
                    {
                        OFFSET 0.0 -0.1 0.0
                    }
                }
            }
        }
    }
}
MOTION
Frames: 7
Frame Time: 0.06666666666666667
1.743155371514149e-05 0.24032051861286163 -8.449143206235021e-05 -5.467953334152932 -9.795485097378362 -30.85314764858666 -3.975693351829396e-16 4.482873583957193e-33 -1.2921003393445538e-15 5.438446322599938 59.462727216735324 -45.43521747963338 46.15991897165317 -41.72306398701611 98.74586152239404 -1.3362411644487784e-33 -1.5405811738338909e-15 -9.93923337957349e-17 -3.975693351829396e-16 4.482873583957193e-33 -1.2921003393445538e-15 0.19059167211880013 3.3046267398990925 -3.874678730333535 4.595534282860697 8.471827404522892e-08 1.6621407919999124e-06 -5.0001282282599455e-33 9.939233379573487e-17 5.764755360152623e-15 60.988827467331355 -61.218017714510886 -84.01420285621583 -112.92756641719994 4.526894513755061e-06 -5.153048577364795e-07 1.2722218725854067e-14 -7.062250076880254e-31 -6.3611093629270335e-15 -5.0001282282599455e-33 9.939233379573487e-17 5.764755360152623e-15 106.94048166291653 -73.67160890932615 111.95746053125615 -5.0001282282599455e-33 9.939233379573487e-17 5.764755360152623e-15 5.9227411930015545 -56.36018768354971 152.98361107981336 44.10035929582756 -2.7098296569903926e-07 3.904517461953485e-06 3.1805546814635164e-15 -3.1805546814635164e-15 4.770832022195274e-15 -3.975693351829396e-16 4.482873583957193e-33 -1.2921003393445538e-15 -4.992881041974053 -57.07321079962448 63.72621664012983 71.17807482585641 19.171018527246233 -103.75899066635154 0.0 0.0 -2.0623909262614992e-15
1.8251797882840037e-05 0.24032127857208252 -8.82248132256791e-05 -6.626722198338414 -9.465187678380056 -30.260772318782898 -2.1724695060715624e-32 -1.789062008323228e-15 -1.3914926731402884e-15 1.2846302896889685 24.02053948301026 -55.595433417063056 11.407312612900657 -8.750005923621556 92.32318536910927 0.0 0.0 -1.0001353588195822e-15 -2.1724695060715624e-32 -1.789062008323228e-15 -1.3914926731402884e-15 0.27165605297402173 4.84914408780566 -5.793003258055266 7.096509310232983 2.50930541048117e-07 -2.3245060580670487e-06 7.951386703658794e-16 -2.069018577211012e-33 -2.981770013872048e-16 59.624915486406785 -62.09898463585511 -84.72674790800468 -114.93783687159254 1.7962382980783032e-06 1.0852094749414952e-06 3.1805546814635168e-15 -3.1805546814635168e-15 -6.3611093629270335e-15 7.951386703658794e-16 -2.069018577211012e-33 -2.981770013872048e-16 107.5472212042447 -73.40122452995314 113.91689780594861 7.951386703658794e-16 -2.069018577211012e-33 -2.981770013872048e-16 5.907000919780659 -57.79721016569095 155.98872441467762 44.82162137822164 -5.123905531276929e-06 5.3039415855047754e-06 0.0 3.1805546814635168e-15 0.0 -2.1724695060715624e-32 -1.789062008323228e-15 -1.3914926731402884e-15 -4.758566928377526 -56.64703925856613 58.88003989988691 73.42886017701494 24.341277479019595 -99.61246944560762 2.9817700138720465e-16 -7.951386703658791e-16 1.7207297788386602e-15
1.923457602970302e-05 0.24032512307167053 -9.306021092925221e-05 -7.319268758981533 -9.204355756831527 -30.175788693231087 6.129467534987623e-32 1.7890620083232284e-15 -3.9259971849315285e-15 -0.7715045462161534 -16.34490907095301 -52.36836121470685 -25.90096060988526 20.063764799178887 94.73848006140886 1.9878466759146977e-16 -1.2424041724466865e-17 -2.006482738501398e-15 6.129467534987623e-32 1.7890620083232284e-15 -3.9259971849315285e-15 0.2546159668009849 6.6301752598471415 -6.984569320520746 7.907327334858201 3.229529070500787e-07 1.1775145016521848e-06 -7.951386703658792e-16 5.963540027744094e-16 2.882377680076312e-15 63.55736202524853 -60.674394489093686 -80.44380362713208 -108.56500399798028 5.659330335716844e-07 -5.0863420668915325e-06 -3.1805546814635164e-15 3.1805546814635164e-15 -3.1805546814635164e-15 -7.951386703658792e-16 5.963540027744094e-16 2.882377680076312e-15 107.8558200270985 -71.16688301640352 113.68350732065025 -7.951386703658792e-16 5.963540027744094e-16 2.882377680076312e-15 5.263704055988765 -55.81150205453943 156.45360605048742 37.77634740097824 -3.2444524774802474e-07 -5.774163289872243e-06 -6.3611093629270335e-15 8.827812596100317e-32 -1.5902773407317584e-15 6.129467534987623e-32 1.7890620083232284e-15 -3.9259971849315285e-15 -3.2315950944574436 -56.76297516622781 54.85647284561394 76.70490250038961 30.4385002494592 -99.8494039491431 -4.969616689786746e-17 -3.0348299833700582e-33 6.9978415013059615e-15
1.624299693503417e-05 0.24032871425151825 -9.381445124745369e-05 -6.540633831028726 -9.672128186173936 -29.361256156707544 7.95138670365879e-16 1.7241821476758433e-32 2.4848083448933718e-15 -0.7088291937362585 -15.778009599090431 -52.00649567617821 -28.638750511043302 21.981387264455716 92.04587451718984 -7.951386703658792e-16 -2.069018577211012e-33 2.981770013872047e-16 7.95138670365879e-16 1.7241821476758433e-32 2.4848083448933718e-15 0.20890323783936915 5.830656414822071 -8.164473571846374 8.686482283500503 -1.0007839058044937e-07 2.7238236127464298e-06 3.6207825101192705e-32 1.1927080055488188e-15 -3.4787316828507214e-15 55.076801620879486 -62.26801612261827 -84.62812097280424 -112.81394959256762 -5.530071125327646e-07 1.8846338902036108e-07 -1.7655625192200634e-31 -3.1805546814635168e-15 -6.3611093629270335e-15 3.6207825101192705e-32 1.1927080055488188e-15 -3.4787316828507214e-15 106.25060539152946 -69.56602533044342 112.04199847736044 3.6207825101192705e-32 1.1927080055488188e-15 -3.4787316828507214e-15 5.82274094017757 -50.152579842436296 156.9944158563222 37.65901432443394 8.383979008309901e-08 -5.82304023927187e-07 -3.1805546814635168e-15 -1.5448672043175555e-31 5.565970692561154e-15 7.95138670365879e-16 1.7241821476758433e-32 2.4848083448933718e-15 -2.8942827626019767 -55.77012702277085 53.74615704974465 75.66115197147849 31.77428643857074 -99.88000273062646 -1.987846675914698e-16 3.944066662808491e-33 -2.2735996355774357e-15
1.7541511624585837e-05 0.24031762778759003 -8.931150659918785e-05 -8.46817508349371 -9.4613046382252 -31.35319899505878 -1.5902773407317588e-15 1.9310840053969444e-32 -1.391492673140289e-15 4.336789868309853 38.39666810363921 -5.978549102511968 -0.6650559192667997 -29.15821817426921 28.17266588173783 0.0 0.0 3.602972100095389e-16 -1.5902773407317588e-15 1.9310840053969444e-32 -1.391492673140289e-15 0.2816073679741864 2.8532337885948422 -4.3214807939280835 8.637922247431582 -9.991680802681477e-07 -9.824744042537423e-07 -3.534573402735479e-33 -1.987846675914698e-16 -2.0375428428125655e-15 56.57847630139068 -61.0857861616281 -87.4166895709325 -114.49571471983748 -1.5437305893540632e-06 3.2681409745466525e-06 -6.3611093629270335e-15 3.1805546814635176e-15 -7.951386703658792e-15 -3.534573402735479e-33 -1.987846675914698e-16 -2.0375428428125655e-15 97.99889263989839 -72.6806603037998 105.01318366364046 -3.534573402735479e-33 -1.987846675914698e-16 -2.0375428428125655e-15 0.1520958166707152 -55.09079643844722 151.7997934418415 39.111892945347556 -3.947155308030184e-06 2.721657893970132e-07 3.1805546814635168e-15 6.3611093629270335e-15 -1.7655625192200634e-31 -1.5902773407317588e-15 1.9310840053969444e-32 -1.391492673140289e-15 -12.196672509537022 -65.13784786817345 48.49736123863742 85.81639475411036 27.896692732180746 -107.84838072121808 7.20594420019078e-16 -7.951386703658792e-16 1.5530052155583579e-16
2.013453922700137e-05 0.24032558500766754 -9.11700917640701e-05 -7.849849829647254 -9.019390704626439 -29.931387742110633 0.0 0.0 2.1866313435061676e-15 4.309904991074516 37.13915651288231 -6.940997292959509 -0.21505682846424565 -28.274064015155542 28.96168137443373 4.1757536389024326e-35 -2.484808344893373e-17 1.925726467292364e-16 0.0 0.0 2.1866313435061676e-15 0.25196056214121976 2.4529554123550197 -7.689199636599744 8.536007477419751 6.160395511500349e-07 -1.675109190645497e-06 -3.0173187584327255e-33 -1.3914926731402886e-15 -2.4848083448933725e-16 66.71008657935671 -59.370478034660216 -78.6261960217531 -121.84902853723419 3.3865867414485984e-06 5.639815439269027e-07 0.0 0.0 1.5902773407317588e-15 -3.0173187584327255e-33 -1.3914926731402886e-15 -2.4848083448933725e-16 96.35573658133117 -71.4524984312403 103.99990409739442 -3.0173187584327255e-33 -1.3914926731402886e-15 -2.4848083448933725e-16 3.3610161434631443 -57.41538648829709 156.17172028147561 41.06463916442863 2.4084139821104486e-06 -9.694173309755303e-07 0.0 0.0 -4.770832022195274e-15 0.0 0.0 2.1866313435061676e-15 -10.244035437827964 -60.26845294885992 49.3965040377031 77.84126231188831 28.146005291983133 -105.61235842661739 1.2424041724466862e-16 -1.2424041724466865e-17 -2.8528705809807032e-15
2.1047268091933802e-05 0.24032969772815704 -9.597405733074993e-05 -9.162214174320809 -8.827500874339753 -30.552171748662236 7.951386703658791e-16 1.9878466759146975e-16 -3.578124016646456e-15 -1.9468862093672483 -21.3027641985721 -25.723254865507894 -16.17522276369797 36.33542745315873 60.439246988041944 -7.99791523580103e-37 7.765026077791788e-19 1.1802839638243516e-16 7.951386703658791e-16 1.9878466759146975e-16 -3.578124016646456e-15 0.25414284038040147 3.1193803082860097 -7.04264550992231 10.046219533558807 7.009513230029457e-07 1.9676250604700176e-06 0.0 0.0 5.466578358765421e-15 69.7992343158869 -55.09251561394666 -78.91091263352854 -119.70877173365368 3.0907010057390147e-06 2.6483980420118087e-06 -3.1805546814635176e-15 0.0 0.0 0.0 0.0 5.466578358765421e-15 90.27595072547379 -72.48317702097832 97.47587358788849 0.0 0.0 5.466578358765421e-15 1.45274507438356 -50.692841974995495 155.21661334551715 33.992173997215666 -2.195333463030659e-07 -6.489532395535828e-06 0.0 0.0 -1.5902773407317582e-15 7.951386703658791e-16 1.9878466759146975e-16 -3.578124016646456e-15 -9.24474511384202 -63.38703146215924 47.56676543692012 85.6595188151813 31.89249598439658 -108.05688363393396 3.9756933518293955e-16 -9.93923337957349e-17 -2.5593525952401734e-15
